<svg width="32px" height="32px">
  <g fill="none" fillRule="evenodd">
    <circle cx="315" cy="315" r="315" fill="#FF3C41"/>
    <g transform="translate(67 84)">
      <circle cx="186.5" cy="229.5" r="170.5" stroke="#FFF" strokeWidth="35"/>
      <path fill="#FF3C41" fillRule="nonzero" d="M35.292 226.12c-1.11 23.292-3.872-25.213 4.954-55.122 8.826-29.91 15.008-52.353 38.34-79.268 13.667-15.766 44.408-40.304 54.144-47.76 15.366-11.77 52.114-8.17 52.114-8.17l80.6 12.065 36.312 25.13 48.945 54.8s21.65 33.32 25.56 47.623c3.908 14.304-2.96 45.682-2.96 45.682l-25.06-58.664-45.616-35.79-21.605-11.76-70.653-30.28-65.022 7.124-51.466 27.48-39.32 46.42s0 51.763-19.25 60.49z"/>
      <circle cx="250.5" cy="229.5" r="106.5" stroke="#FFF" strokeWidth="35"/>
      <circle cx="245.5" cy="229.5" r="229.5" stroke="#FFF" strokeWidth="35"/>
      <path fill="#FF3C41" fillRule="nonzero" d="M.455 252.613S-.35 271.086 11.67 298.14c12.02 27.05 15.38 30.418 24.314 43.926 8.935 13.51 41.884 41.08 41.884 41.08s22.365 12.975 34.075 18.466c11.71 5.49 19.34 7.715 33.216 12.17 13.87 4.453 50.46 18.134 50.46 18.134l194.36-48.77h57.79l-39.87 44.366-136.43 69.62-159.53-37-31.79-26.392-58.235-74.754-18.293-64.11-3.17-42.263z"/>
      <path fill="#FF3C41" fillRule="nonzero" d="M339.335 234s0 15.853-4.996 35.81c-5 19.957-10.28 27.16-17.12 39.606-6.838 12.447-8.6 13.233-17.417 22.99-8.814 9.755-19.575 17.95-19.575 17.95s-11.875 3.568-31.237 3.337c-19.36-.23-40.4-6.277-40.4-6.277l10.05-35.384 27.123 4.865 39.313-8.434 30.95-23.91L339.33 234z"/>
      <circle cx="213.5" cy="329.5" r="17.5" fill="#FFF" fillRule="nonzero"/><path fill="#FF3C41" fillRule="nonzero" d="M168.257 477.51l38.213-.073L202.854 491l-21.296 8.95"/>
      <path stroke="#FFF" strokeWidth="35" d="M426.643 370.288c-7.813 10.203-36.967 34.74-61.907 55.432-24.94 20.693-35.91 28.785-58.124 46.202-22.212 17.417-34.075 28.4-34.075 28.4"/>
      <circle cx="272.5" cy="502.5" r="17.5" fill="#FFF" fillRule="nonzero"/>
    </g>
  </g>
</svg>