<?xml version="1.0" encoding="UTF-8"?>
<svg viewBox="0 0 630 630" version="1.1" xmlns="http://www.w3.org/2000/svg" xmlns:xlink="http://www.w3.org/1999/xlink">
    <!-- Generator: Sketch 43.1 (39012) - http://www.bohemiancoding.com/sketch -->
    <title>mumimaps_placemark</title>
    <desc>Created with Sketch.</desc>
    <defs></defs>
    <g id="Page-1" stroke="none" stroke-width="1" fill="none" fill-rule="evenodd">
        <g id="mumimaps_placemark">
            <g id="pin-icon" fill="#FF3C41">
                <circle id="Oval-2" cx="315" cy="315" r="315"></circle>
            </g>
            <g id="Group" transform="translate(67.000000, 84.000000)">
                <g id="Group-2">
                    <circle id="С" stroke="#FFFFFF" stroke-width="35" cx="186.5" cy="229.5" r="170.5"></circle>
                    <path d="M35.2919922,226.121094 C34.1826172,249.412109 31.4199219,200.907227 40.2460938,170.998047 C49.0722656,141.088867 55.2543945,118.644531 78.5859375,91.7304688 C92.2534604,75.9643204 122.994464,51.4259706 132.730469,43.96875 C148.095946,32.1996767 184.84375,35.8007813 184.84375,35.8007813 L265.443359,47.8652344 L301.755859,72.9960938 L350.701172,127.794922 C350.701172,127.794922 372.349806,161.114311 376.253906,175.417969 C380.158006,189.721627 373.291016,221.099609 373.291016,221.099609 L348.228516,162.435547 L302.613281,126.644531 L281.007812,114.886719 L210.355469,84.6054688 L145.332031,91.7304688 L93.8652344,119.208984 L54.5429687,165.628906 C54.5429687,165.628906 54.5429687,217.392578 35.2919922,226.121094 Z" id="Path-2" fill="#FF3C41" fill-rule="nonzero"></path>
                    <circle id="М" stroke="#FFFFFF" stroke-width="35" cx="250.5" cy="229.5" r="106.5"></circle>
                    <circle id="Б" stroke="#FFFFFF" stroke-width="35" cx="245.5" cy="229.5" r="229.5"></circle>
                    <path d="M0.455078125,252.613281 C0.455078125,252.613281 -0.350585938,271.085938 11.6699219,298.138672 C23.6904297,325.191406 27.0498047,328.557617 35.984375,342.066406 C44.9189453,355.575195 77.8681641,383.146484 77.8681641,383.146484 C77.8681641,383.146484 100.232514,396.121426 111.943359,401.612305 C123.654205,407.103184 131.28418,409.327148 145.15918,413.78125 C159.03418,418.235352 195.621094,431.916016 195.621094,431.916016 L389.988281,383.146484 L447.777344,383.146484 L407.900391,427.511719 L271.46875,497.132812 L111.943359,460.132813 L80.1542969,433.740234 L21.9179687,358.986328 L3.625,294.876953 L0.455078125,252.613281 Z" id="Path-3" fill="#FF3C41" fill-rule="nonzero"></path>
                    <path d="M339.335449,234 C339.335449,234 339.335449,249.852539 334.338867,269.80957 C329.342285,289.766602 324.060903,296.968582 317.226563,309.416016 C310.392222,321.863449 308.627611,322.649128 299.813477,332.405273 C290.999342,342.161419 280.238281,350.357422 280.238281,350.357422 C280.238281,350.357422 268.363245,353.923967 249.000977,353.693359 C229.638708,353.462752 208.601562,347.416016 208.601562,347.416016 L218.651367,312.032227 L245.774414,316.897461 L285.086914,308.462891 L316.035156,284.551758 L339.335449,234 Z" id="Path-5" fill="#FF3C41" fill-rule="nonzero"></path>
                    <circle id="Oval" fill="#FFFFFF" fill-rule="nonzero" cx="213.5" cy="329.5" r="17.5"></circle>
                    <polygon id="Path-6" fill="#FF3C41" fill-rule="nonzero" points="168.256836 477.51123 206.470215 477.437012 202.854492 491.001465 181.558105 499.951172"></polygon>
                </g>
                <path d="M426.642578,370.288086 C418.830078,380.491211 389.676295,405.026555 364.736328,425.719727 C339.796362,446.412898 328.824789,454.505072 306.612305,471.921875 C284.39982,489.338678 272.537109,500.322266 272.537109,500.322266" id="Path-7" stroke="#FFFFFF" stroke-width="35"></path>
                <circle id="Oval-3" fill="#FFFFFF" fill-rule="nonzero" cx="272.5" cy="502.5" r="17.5"></circle>
            </g>
        </g>
    </g>
</svg>